<svg width="16" height="16" viewBox="0 0 16 16" fill="none" xmlns="http://www.w3.org/2000/svg">
<path d="M13.8628 10.9963C13.5159 10.3988 13.0003 8.70813 13.0003 6.5C13.0003 5.17392 12.4735 3.90215 11.5358 2.96447C10.5981 2.02678 9.32634 1.5 8.00025 1.5C6.67417 1.5 5.4024 2.02678 4.46472 2.96447C3.52704 3.90215 3.00025 5.17392 3.00025 6.5C3.00025 8.70875 2.484 10.3988 2.13713 10.9963C2.04855 11.1482 2.00159 11.3207 2.00098 11.4966C2.00038 11.6724 2.04615 11.8453 2.13369 11.9978C2.22122 12.1503 2.34743 12.277 2.49957 12.3652C2.65171 12.4534 2.82441 12.4999 3.00025 12.5H5.55088C5.66624 13.0645 5.97302 13.5718 6.41934 13.9361C6.86565 14.3004 7.42411 14.4994 8.00025 14.4994C8.57639 14.4994 9.13485 14.3004 9.58117 13.9361C10.0275 13.5718 10.3343 13.0645 10.4496 12.5H13.0003C13.176 12.4998 13.3487 12.4532 13.5007 12.365C13.6528 12.2768 13.7789 12.15 13.8663 11.9975C13.9538 11.845 13.9995 11.6722 13.9989 11.4964C13.9983 11.3206 13.9513 11.1481 13.8628 10.9963ZM8.00025 13.5C7.69014 13.4999 7.38768 13.4037 7.1345 13.2246C6.88132 13.0455 6.68987 12.7924 6.5865 12.5H9.414C9.31063 12.7924 9.11918 13.0455 8.866 13.2246C8.61283 13.4037 8.31037 13.4999 8.00025 13.5ZM3.00025 11.5C3.4815 10.6725 4.00025 8.755 4.00025 6.5C4.00025 5.43913 4.42168 4.42172 5.17183 3.67157C5.92197 2.92143 6.93939 2.5 8.00025 2.5C9.06112 2.5 10.0785 2.92143 10.8287 3.67157C11.5788 4.42172 12.0003 5.43913 12.0003 6.5C12.0003 8.75312 12.5178 10.6706 13.0003 11.5H3.00025Z" fill="#211F26"/>
</svg>
