<svg width="18" height="21" viewBox="0 0 18 21" fill="none" xmlns="http://www.w3.org/2000/svg">
<path d="M16.5 6.75H13.5V4.5C13.5 3.30653 13.0259 2.16193 12.182 1.31802C11.3381 0.474106 10.1935 0 9 0C7.80653 0 6.66193 0.474106 5.81802 1.31802C4.97411 2.16193 4.5 3.30653 4.5 4.5V6.75H1.5C1.10218 6.75 0.720644 6.90804 0.43934 7.18934C0.158035 7.47064 0 7.85218 0 8.25V18.75C0 19.1478 0.158035 19.5294 0.43934 19.8107C0.720644 20.092 1.10218 20.25 1.5 20.25H16.5C16.8978 20.25 17.2794 20.092 17.5607 19.8107C17.842 19.5294 18 19.1478 18 18.75V8.25C18 7.85218 17.842 7.47064 17.5607 7.18934C17.2794 6.90804 16.8978 6.75 16.5 6.75ZM9 14.625C8.7775 14.625 8.55999 14.559 8.37498 14.4354C8.18998 14.3118 8.04578 14.1361 7.96064 13.9305C7.87549 13.725 7.85321 13.4988 7.89662 13.2805C7.94002 13.0623 8.04717 12.8618 8.2045 12.7045C8.36184 12.5472 8.56229 12.44 8.78052 12.3966C8.99875 12.3532 9.22495 12.3755 9.43052 12.4606C9.63609 12.5458 9.81179 12.69 9.9354 12.875C10.059 13.06 10.125 13.2775 10.125 13.5C10.125 13.7984 10.0065 14.0845 9.79549 14.2955C9.58452 14.5065 9.29837 14.625 9 14.625ZM12 6.75H6V4.5C6 3.70435 6.31607 2.94129 6.87868 2.37868C7.44129 1.81607 8.20435 1.5 9 1.5C9.79565 1.5 10.5587 1.81607 11.1213 2.37868C11.6839 2.94129 12 3.70435 12 4.5V6.75Z" fill="#B5B2BC"/>
</svg>
